<svg viewBox="0 0 96 96" xmlns="http://www.w3.org/2000/svg" xmlns:xlink="http://www.w3.org/1999/xlink" id="Icons_Tornado" overflow="hidden"><style>
.MsftOfcThm_Background1_Fill_v2 {
 fill:#FFFFFF; 
}
</style>
<path d="M81.8 21.7C81.8 16.4 66.6 12 47.9 12 29.2 12 14 16.3 14 21.7 14.1 25.3 15.6 34.6 26.8 42.4 30 44.6 33.4 46.5 36.9 48.2 41.6 50.6 45.7 52.7 48.3 55.9 52.1 60.6 49.8 63 45.6 67.2 44.1 68.6 42.8 70.1 41.5 71.7 39.9 73.5 39.1 75.9 39.3 78.4 39.7 81.3 41.9 83.4 43.7 84.7 44.3 85.1 45.1 85.2 45.8 84.9 46.5 84.6 47 83.9 47.1 83.1 47.4 80.6 48.7 78.2 50.6 76.5 53.4 74 56.7 71.9 60.2 70.5 63.5 69 66.7 67.3 69.8 65.3 72.7 63.3 74.4 61 74.8 58.2 74.8 58 74.8 57.8 74.8 57.6 71.4 58.2 67.8 58.7 64.3 59.1 64.2 59.1 64.2 59.1 64.1 59.1 63 59.1 62.1 58.2 62.1 57.1 62.1 56.1 62.9 55.2 63.9 55.1 67.7 54.7 71.2 54.3 74.3 53.7 73.4 51.2 72.1 48.9 70.4 47 65.5 48 60.6 48.7 55.7 49 55.7 49 55.6 49 55.6 49 54.5 49 53.6 48.1 53.6 47 53.6 46 54.4 45.1 55.5 45 60 44.7 64.4 44.1 68.8 43.3 68.5 41 69.6 38.3 72 35.3 63.6 37.6 52.4 38.8 41.4 38.8 40.3 38.8 39.4 37.9 39.4 36.8 39.4 35.7 40.3 34.8 41.4 34.8 59.3 34.8 72.3 31.8 78.5 28.6 81.2 25.4 81.8 23.1 81.8 21.7ZM22.4 21.7C26.7 20 35.6 18 47.9 18 60.2 18 69.1 19.9 73.4 21.7 69 23.4 60.2 25.4 47.9 25.4 35.6 25.4 26.7 23.4 22.4 21.7Z" class="MsftOfcThm_Background1_Fill_v2" stroke="none" stroke-width="1.00007" stroke-linecap="butt" stroke-linejoin="miter" stroke-miterlimit="4" fill="#FFFFFF" fill-opacity="1"/></svg>